<svg width="43" height="38" viewBox="0 0 43 38" fill="none" xmlns="http://www.w3.org/2000/svg">
<path d="M41.1621 7.84769C40.5076 6.33225 39.5639 4.95896 38.3838 3.80472C37.2028 2.64704 35.8104 1.72704 34.2822 1.09476C32.6976 0.436524 30.9981 0.0996007 29.2822 0.10355C26.875 0.10355 24.5264 0.76273 22.4854 2.00785C21.9971 2.3057 21.5332 2.63285 21.0938 2.98929C20.6543 2.63285 20.1904 2.3057 19.7021 2.00785C17.6611 0.76273 15.3125 0.10355 12.9053 0.10355C11.1719 0.10355 9.49219 0.435581 7.90527 1.09476C6.37207 1.72953 4.99023 2.64261 3.80371 3.80472C2.62205 4.95766 1.67811 6.33127 1.02539 7.84769C0.34668 9.42484 0 11.0996 0 12.8233C0 14.4493 0.332031 16.1436 0.991211 17.8672C1.54297 19.3077 2.33398 20.8018 3.34473 22.3106C4.94629 24.6983 7.14844 27.1885 9.88281 29.7129C14.4141 33.8975 18.9014 36.7881 19.0918 36.9053L20.249 37.6475C20.7617 37.9746 21.4209 37.9746 21.9336 37.6475L23.0908 36.9053C23.2813 36.7832 27.7637 33.8975 32.2998 29.7129C35.0342 27.1885 37.2363 24.6983 38.8379 22.3106C39.8486 20.8018 40.6445 19.3077 41.1914 17.8672C41.8506 16.1436 42.1826 14.4493 42.1826 12.8233C42.1875 11.0996 41.8408 9.42484 41.1621 7.84769V7.84769Z" fill="#1E39C8"/>
<path d="M11.015 13.888C8.887 13.888 7.383 15.856 7.383 18.928C7.383 22.016 8.887 23.984 11.015 23.984C13.143 23.984 14.647 22.016 14.647 18.928C14.647 15.856 13.143 13.888 11.015 13.888ZM11.015 15.088C12.407 15.088 13.383 16.592 13.383 18.928C13.383 21.28 12.407 22.816 11.015 22.816C9.607 22.816 8.647 21.28 8.647 18.928C8.647 16.592 9.607 15.088 11.015 15.088ZM16.951 12.784V27.248H18.295V12.784H16.951ZM17.975 18.56V19.68H20.663V18.56H17.975ZM32.0858 12.784V27.248H33.3978V12.784H32.0858ZM32.6458 18.432V19.536H35.3178V18.432H32.6458ZM22.1497 14.128V23.744H26.1498V14.128H25.0458V17.84H23.2858V14.128H22.1497ZM23.2858 18.896H25.0458V22.656H23.2858V18.896ZM26.9178 14.128V23.744H30.8698V14.128H29.7498V17.84H28.0378V14.128H26.9178ZM28.0378 18.896H29.7498V22.656H28.0378V18.896Z" fill="white"/>
</svg>
