<svg width="39" height="29" viewBox="0 0 39 29" fill="none" xmlns="http://www.w3.org/2000/svg">
<path d="M0.121875 3.75792C0.367619 2.69034 0.971722 1.73713 1.83525 1.05441C2.69877 0.371692 3.77053 -7.36949e-05 4.875 1.09575e-08H34.125C35.2295 -7.36949e-05 36.3012 0.371692 37.1648 1.05441C38.0283 1.73713 38.6324 2.69034 38.8781 3.75792L19.5 15.5005L0.121875 3.75792ZM0 6.51775V23.6857L14.1448 15.0872L0 6.51775ZM16.4799 16.5058L0.465562 26.2377C0.861234 27.0649 1.48572 27.7637 2.26634 28.2527C3.04696 28.7417 3.95161 29.0009 4.875 29H34.125C35.0482 29.0002 35.9525 28.7405 36.7327 28.251C37.5129 27.7616 38.1369 27.0626 38.532 26.2353L22.5176 16.5034L19.5 18.3328L16.4799 16.5034V16.5058ZM24.8552 15.0897L39 23.6857V6.51775L24.8552 15.0872V15.0897Z" fill="white"/>
</svg>
