<svg width="33" height="34" viewBox="0 0 33 34" fill="none" xmlns="http://www.w3.org/2000/svg">
<path d="M32.3938 26.633L24.8637 19.5791C24.5077 19.2458 24.04 19.068 23.5592 19.0833C23.0784 19.0986 22.6223 19.3058 22.287 19.6612L17.8541 24.3581C16.7871 24.1481 14.642 23.4592 12.434 21.1899C10.2259 18.913 9.55715 16.6972 9.35894 15.6055L13.914 11.0365C14.2594 10.6913 14.4608 10.2212 14.4756 9.72571C14.4905 9.23023 14.3177 8.74822 13.9937 8.38171L7.14901 0.625413C6.82491 0.257746 6.37447 0.0347284 5.89335 0.00372506C5.41223 -0.0272783 4.93833 0.136175 4.57229 0.45937L0.552544 4.01116C0.232281 4.34232 0.0411265 4.78307 0.0153417 5.2498C-0.0124446 5.72693 -0.542236 17.0293 7.96407 25.7971C15.3849 33.4408 24.6803 34 27.2403 34C27.6145 34 27.8442 33.9886 27.9054 33.9847C28.3583 33.9586 28.7859 33.7608 29.1057 33.4293L32.5512 29.2859C32.8662 28.91 33.026 28.4221 32.9966 27.9265C32.9671 27.4308 32.7508 26.9666 32.3938 26.633V26.633Z" fill="white"/>
</svg>
