<svg width="48" height="48" viewBox="0 0 48 48" fill="none" xmlns="http://www.w3.org/2000/svg">
<path d="M44.25 0H3.75C1.678 0 0 1.68 0 3.75V44.25C0 46.322 1.68 48 3.75 48H44.25C46.322 48 48 46.32 48 44.25V3.75C48 1.678 46.32 0 44.25 0ZM24 37.5C22.818 37.5 21.66 37.418 20.536 37.26C19.412 38.052 12.91 42.618 12.296 42.704C12.296 42.704 12.046 42.802 11.832 42.676C11.618 42.55 11.656 42.218 11.656 42.218C11.72 41.778 13.342 36.182 13.64 35.152C8.15 32.432 4.5 27.614 4.5 22.126C4.5 13.634 13.23 6.75 24 6.75C34.77 6.75 43.5 13.634 43.5 22.126C43.5 30.616 34.77 37.5 24 37.5ZM16.1 19.734H14.344V26.418C14.344 27.01 13.84 27.492 13.218 27.492C12.596 27.492 12.094 27.012 12.094 26.418V19.734H10.338C10.06 19.7135 9.80013 19.5886 9.61044 19.3843C9.42076 19.1801 9.31533 18.9117 9.31533 18.633C9.31533 18.3543 9.42076 18.0859 9.61044 17.8817C9.80013 17.6774 10.06 17.5525 10.338 17.532H16.098C16.376 17.5525 16.6359 17.6774 16.8256 17.8817C17.0152 18.0859 17.1207 18.3543 17.1207 18.633C17.1207 18.9117 17.0152 19.1801 16.8256 19.3843C16.6359 19.5886 16.376 19.7135 16.098 19.734H16.1ZM38.074 25.648C38.1638 25.7656 38.2293 25.8999 38.2668 26.0431C38.3042 26.1863 38.3128 26.3355 38.292 26.482C38.2714 26.6281 38.2222 26.7688 38.147 26.8958C38.0718 27.0228 37.9722 27.1337 37.854 27.222C37.6598 27.37 37.4222 27.4502 37.178 27.45C37.0034 27.4509 36.831 27.4109 36.6747 27.3331C36.5184 27.2553 36.3825 27.1419 36.278 27.002L33.64 23.508L33.25 23.898V26.352C33.2495 26.6501 33.1309 26.9359 32.9203 27.1469C32.7097 27.3579 32.4241 27.4769 32.126 27.478C31.8274 27.478 31.541 27.3594 31.3298 27.1482C31.1186 26.937 31 26.6506 31 26.352V18.656C31.0122 18.3658 31.1361 18.0916 31.3457 17.8906C31.5554 17.6897 31.8346 17.5774 32.125 17.5774C32.4154 17.5774 32.6946 17.6897 32.9042 17.8906C33.1139 18.0916 33.2378 18.3658 33.25 18.656V21.076L36.39 17.936C36.472 17.8551 36.5691 17.7912 36.6758 17.7479C36.7826 17.7047 36.8968 17.6829 37.012 17.684C37.292 17.684 37.576 17.806 37.788 18.018C37.981 18.2072 38.0984 18.4604 38.118 18.73C38.1284 18.8554 38.1116 18.9817 38.0688 19.1C38.026 19.2184 37.9582 19.3262 37.87 19.416L35.306 21.978L38.076 25.648H38.074ZM21.374 18.644C21.184 18.104 20.608 17.548 19.874 17.532C19.142 17.548 18.566 18.104 18.376 18.642L15.686 25.724C15.344 26.784 15.642 27.18 15.952 27.324C16.1762 27.426 16.4197 27.4786 16.666 27.478C17.136 27.478 17.494 27.288 17.602 26.982L18.16 25.522H21.59L22.148 26.982C22.256 27.288 22.614 27.478 23.084 27.478C23.3304 27.4777 23.5739 27.4245 23.798 27.322C24.108 27.18 24.406 26.786 24.064 25.722L21.374 18.642V18.644ZM18.752 23.53L19.876 20.338L20.998 23.53H18.752ZM30.562 26.296C30.5557 26.5757 30.4386 26.8415 30.2365 27.035C30.0344 27.2285 29.7637 27.3339 29.484 27.328H25.876C25.7373 27.3312 25.5994 27.307 25.47 27.2569C25.3407 27.2067 25.2225 27.1316 25.1222 27.0358C25.0219 26.9399 24.9415 26.8253 24.8855 26.6983C24.8295 26.5714 24.7991 26.4347 24.796 26.296V18.656C24.796 18.036 25.312 17.532 25.946 17.532C26.58 17.532 27.094 18.036 27.094 18.656V25.266H29.484C30.078 25.266 30.564 25.728 30.564 26.296H30.562Z" fill="white"/>
</svg>
