<svg width="44" height="38" viewBox="0 0 44 38" fill="none" xmlns="http://www.w3.org/2000/svg">
<path d="M42.0684 7.84769C41.4139 6.33225 40.4701 4.95896 39.29 3.80472C38.109 2.64704 36.7166 1.72704 35.1885 1.09476C33.6039 0.436524 31.9043 0.0996007 30.1885 0.10355C27.7812 0.10355 25.4326 0.76273 23.3916 2.00785C22.9033 2.3057 22.4395 2.63285 22 2.98929C21.5605 2.63285 21.0967 2.3057 20.6084 2.00785C18.5674 0.76273 16.2187 0.10355 13.8115 0.10355C12.0781 0.10355 10.3984 0.435581 8.81152 1.09476C7.27832 1.72953 5.89648 2.64261 4.70996 3.80472C3.5283 4.95766 2.58436 6.33127 1.93164 7.84769C1.25293 9.42484 0.90625 11.0996 0.90625 12.8233C0.90625 14.4493 1.23828 16.1436 1.89746 17.8672C2.44922 19.3077 3.24023 20.8018 4.25098 22.3106C5.85254 24.6983 8.05469 27.1885 10.7891 29.7129C15.3203 33.8975 19.8076 36.7881 19.998 36.9053L21.1553 37.6475C21.668 37.9746 22.3271 37.9746 22.8398 37.6475L23.9971 36.9053C24.1875 36.7832 28.6699 33.8975 33.2061 29.7129C35.9404 27.1885 38.1426 24.6983 39.7441 22.3106C40.7549 20.8018 41.5508 19.3077 42.0977 17.8672C42.7568 16.1436 43.0889 14.4493 43.0889 12.8233C43.0938 11.0996 42.7471 9.42484 42.0684 7.84769Z" fill="#EF2360"/>
<path d="M15.1853 16.432V17.536H19.0093V16.432H15.1853ZM12.0173 13.6C9.85725 13.6 8.28925 15.008 8.28925 17.024C8.28925 19.04 9.85725 20.432 12.0173 20.432C14.1613 20.432 15.7453 19.04 15.7453 17.024C15.7453 15.008 14.1613 13.6 12.0173 13.6ZM12.0173 14.736C13.4253 14.736 14.4653 15.664 14.4653 17.024C14.4653 18.384 13.4253 19.328 12.0173 19.328C10.5933 19.328 9.56925 18.384 9.56925 17.024C9.56925 15.664 10.5933 14.736 12.0173 14.736ZM18.6413 12.784V21.088H19.9693V12.784H18.6413ZM10.5933 21.84V27.056H19.9693V21.84H10.5933ZM18.6733 22.896V25.984H11.8893V22.896H18.6733ZM23.36 14.224V23.584H30V14.224H23.36ZM28.704 15.296V22.512H24.656V15.296H28.704ZM32.576 12.784V27.248H33.92V12.784H32.576ZM33.6 18.56V19.68H36.288V18.56H33.6Z" fill="white"/>
</svg>
